<svg width="16" height="16" viewBox="0 0 16 16" fill="none" xmlns="http://www.w3.org/2000/svg">
<path d="M8 16C3.58181 16 0 12.4183 0 8C0 3.58175 3.58181 0 8 0C12.4188 0 16 3.58175 16 8C16 12.4183 12.4188 16 8 16Z" fill="#21201F"/>
<path d="M7.08497 4.67829C7.06722 4.64132 7.02918 4.61523 6.98606 4.61523H6.25355C6.21094 4.61523 6.17289 4.63915 6.15462 4.67611L3.51423 10.6704C3.48025 10.74 3.53452 10.8204 3.61315 10.8204H4.6267C4.68503 10.8204 4.73678 10.7879 4.76113 10.7378L6.564 6.51766C6.58379 6.47636 6.64466 6.47636 6.66241 6.51766L8.46477 10.7378C8.48963 10.7879 8.54138 10.8204 8.59971 10.8204H9.60007C9.6787 10.8204 9.73246 10.74 9.69898 10.6704L7.08295 4.67611L7.08497 4.67829Z" fill="white"/>
<path d="M11.2637 4.61523H10.2889C10.2285 4.61523 10.1797 4.66287 10.1797 4.72162V10.714C10.1797 10.7728 10.2285 10.8204 10.2889 10.8204H11.2637C11.3242 10.8204 11.373 10.7728 11.373 10.714V4.72162C11.373 4.66287 11.3242 4.61523 11.2637 4.61523Z" fill="white"/>
</svg>
