<svg width="108" height="23" viewBox="0 0 108 23" fill="none" xmlns="http://www.w3.org/2000/svg">
<path d="M96.6203 22.7562C90.3365 22.7562 85.2422 17.6621 85.2422 11.3781C85.2422 5.0942 90.3365 0 96.6203 0C102.905 0 107.998 5.0942 107.998 11.3781C107.998 17.6621 102.905 22.7562 96.6203 22.7562Z" fill="#21201F"/>
<path d="M95.2268 5.91362C95.1972 5.85205 95.1338 5.80859 95.062 5.80859H93.8418C93.7709 5.80859 93.7075 5.84843 93.6771 5.91L89.2789 15.8948C89.2223 16.0107 89.3127 16.1447 89.4437 16.1447H91.132C91.2291 16.1447 91.3153 16.0904 91.3559 16.0071L94.359 8.9775C94.3919 8.9087 94.4933 8.9087 94.5229 8.9775L97.5251 16.0071C97.5665 16.0904 97.6527 16.1447 97.7499 16.1447H99.4162C99.5472 16.1447 99.6367 16.0107 99.581 15.8948L95.2234 5.91L95.2268 5.91362Z" fill="white"/>
<path d="M102.2 5.80859H100.577C100.476 5.80859 100.395 5.88793 100.395 5.9858V15.9675C100.395 16.0654 100.476 16.1447 100.577 16.1447H102.2C102.301 16.1447 102.382 16.0654 102.382 15.9675V5.9858C102.382 5.88793 102.301 5.80859 102.2 5.80859Z" fill="white"/>
<path d="M10.6967 15.752H0.235832C0.105591 15.752 0 15.8603 0 15.994V18.0608C0 18.1945 0.105591 18.3029 0.235832 18.3029H10.6967C10.8269 18.3029 10.9325 18.1945 10.9325 18.0608V15.994C10.9325 15.8603 10.8269 15.752 10.6967 15.752Z" fill="#21201F"/>
<path d="M10.6967 4.45508H0.235831C0.10559 4.45508 0 4.56345 0 4.69714V6.76395C0 6.89763 0.10559 7.006 0.235831 7.006H10.6967C10.8269 7.006 10.9325 6.89763 10.9325 6.76395V4.69714C10.9325 4.56345 10.8269 4.45508 10.6967 4.45508Z" fill="#21201F"/>
<path d="M8.50904 10.1641H0.236962C0.106097 10.1641 0 10.2673 0 10.3946V12.363C0 12.4903 0.106097 12.5935 0.236962 12.5935H8.50904C8.63994 12.5935 8.74602 12.4903 8.74602 12.363V10.3946C8.74602 10.2673 8.63994 10.1641 8.50904 10.1641Z" fill="#21201F"/>
<path d="M21.6025 11.2591C21.5692 11.2166 21.5692 11.1589 21.6025 11.1164L26.3627 4.8346C26.4808 4.67976 26.3688 4.45508 26.1751 4.45508H23.6513C23.5514 4.45508 23.4575 4.50062 23.397 4.57956L20.0742 8.95464C20.0258 9.01536 19.935 9.01536 19.8866 8.95464L16.5638 4.57956C16.5033 4.50062 16.4095 4.45508 16.3096 4.45508H13.7827C13.589 4.45508 13.477 4.67671 13.5951 4.8346L18.0527 10.7824C18.083 10.8249 18.083 10.8826 18.0527 10.9251L12.8022 17.9234C12.6842 18.0782 12.7961 18.3029 12.9898 18.3029H15.4895C15.5894 18.3029 15.6832 18.2574 15.7437 18.1754L19.6052 13.0625C19.6536 12.9988 19.7444 12.9988 19.7928 13.0625L23.6815 18.1754C23.742 18.2544 23.8358 18.2999 23.9357 18.2999H26.4868C26.6835 18.2999 26.7924 18.0752 26.6744 17.9204L21.6025 11.2591Z" fill="#21201F"/>
<path d="M36.0719 4.59477C36.0325 4.50974 35.9506 4.45508 35.8567 4.45508H34.2803C34.1894 4.45508 34.1044 4.50974 34.065 4.59477L27.9597 17.9689C27.8869 18.1268 28.0021 18.3029 28.1749 18.3029H30.3576C30.4818 18.3029 30.5971 18.2301 30.6486 18.1177L34.9502 8.69751C34.9927 8.60641 35.1231 8.60641 35.1655 8.69751L39.4641 18.1147C39.5156 18.2271 39.6278 18.2999 39.7551 18.2999H41.9136C42.0864 18.2999 42.1985 18.1207 42.1288 17.9659L36.075 4.59174L36.0719 4.59477Z" fill="#21201F"/>
<path d="M48.5443 4.45508H43.7474C43.617 4.45508 43.5109 4.56123 43.5109 4.69163V6.71453C43.5109 6.84494 43.617 6.95109 43.7474 6.95109H48.5443C51.0126 6.95109 53.0199 8.93457 53.0199 11.379C53.0199 13.8235 51.0126 15.807 48.5443 15.807H43.7444C43.614 15.807 43.5078 15.9131 43.5078 16.0435V18.0664C43.5078 18.1968 43.614 18.3029 43.7444 18.3029H48.5413C52.3983 18.3029 55.5336 15.1973 55.5336 11.379C55.5336 7.56069 52.3983 4.45508 48.5443 4.45508Z" fill="#21201F"/>
<path d="M69.0148 15.752H58.4376C58.306 15.752 58.1992 15.8602 58.1992 15.9937V18.0611C58.1992 18.1946 58.306 18.3029 58.4376 18.3029H69.0148C69.1465 18.3029 69.2532 18.1946 69.2532 18.0611V15.9937C69.2532 15.8602 69.1465 15.752 69.0148 15.752Z" fill="#21201F"/>
<path d="M69.0148 4.45508H58.4376C58.306 4.45508 58.1992 4.56332 58.1992 4.69684V6.76423C58.1992 6.89776 58.306 7.006 58.4376 7.006H69.0148C69.1465 7.006 69.2532 6.89776 69.2532 6.76423V4.69684C69.2532 4.56332 69.1465 4.45508 69.0148 4.45508Z" fill="#21201F"/>
<path d="M66.7083 10.1641H58.4361C58.3053 10.1641 58.1992 10.2671 58.1992 10.3943V12.3632C58.1992 12.4904 58.3053 12.5935 58.4361 12.5935H66.7083C66.8392 12.5935 66.9452 12.4904 66.9452 12.3632V10.3943C66.9452 10.2671 66.8392 10.1641 66.7083 10.1641Z" fill="#21201F"/>
<path d="M80.9114 15.8403H74.8746C74.7434 15.8403 74.637 15.7342 74.637 15.6038V4.69163C74.637 4.56123 74.5305 4.45508 74.4 4.45508H72.2728C72.1416 4.45508 72.0352 4.56123 72.0352 4.69163V18.0664C72.0352 18.1968 72.1416 18.3029 72.2728 18.3029H80.9086C81.0391 18.3029 81.1456 18.1968 81.1456 18.0664V16.0799C81.1456 15.9495 81.0391 15.8433 80.9086 15.8433L80.9114 15.8403Z" fill="#21201F"/>
</svg>
